<svg id="Capa_1" enable-background="new 0 0 512 512" height="512" viewBox="0 0 512 512" width="512" xmlns="http://www.w3.org/2000/svg"><g>
<path d="M2191 4799 c-101 -11 -247 -58 -408 -133 -152 -69 -242 -101 -340
-120 -110 -21 -182 -49 -268 -107 -134 -90 -228 -219 -270 -374 -22 -82 -31
-274 -16 -361 11 -63 57 -196 160 -464 22 -58 55 -166 74 -240 60 -239 64
-254 96 -335 17 -44 44 -125 61 -180 47 -154 161 -477 178 -503 14 -22 50 -37
85 -34 11 0 69 23 130 50 123 55 262 101 377 127 99 22 370 31 480 16 219 -29
464 -114 672 -233 153 -88 211 -91 244 -13 15 37 35 260 33 369 -4 204 51 308
383 722 210 262 280 362 338 488 76 160 92 314 44 409 -80 157 -226 350 -355
471 -191 177 -388 275 -704 351 -370 88 -724 122 -994 94z m428 -200 c64 -6
117 -12 119 -14 1 -1 -16 -33 -38 -71 -87 -150 -153 -351 -187 -574 -32 -213
-23 -593 22 -949 8 -63 14 -115 12 -116 -1 -1 -70 0 -152 3 l-151 4 -17 112
c-142 896 -150 958 -151 1111 -1 177 16 273 72 403 l37 87 45 6 c78 10 270 9
389 -2z m-518 -61 c-40 -61 -56 -109 -77 -223 -46 -260 3 -751 121 -1232 25
-99 48 -188 51 -197 5 -13 -1 -16 -32 -16 -22 -1 -86 -9 -142 -18 -104 -18
-104 -18 -112 2 -16 44 -41 217 -50 356 -5 80 -14 218 -20 308 -12 193 -30
301 -71 442 -31 109 -98 261 -150 341 -16 25 -29 52 -29 60 0 9 32 25 83 43
45 16 125 49 177 74 95 45 244 102 267 102 7 0 0 -18 -16 -42z m826 17 c140
-26 345 -75 395 -94 l28 -10 -56 -112 c-179 -357 -266 -699 -304 -1188 -5 -74
-10 -184 -10 -243 0 -107 0 -108 -22 -103 -123 28 -205 43 -339 60 l-46 6 -7
122 c-9 177 23 686 65 1027 28 224 70 433 108 533 13 33 15 33 188 2z m546
-156 c153 -77 270 -166 373 -288 l63 -73 -54 -50 c-196 -179 -412 -746 -466
-1220 -6 -60 -17 -115 -24 -125 -11 -15 -15 -14 -47 10 -43 33 -183 99 -262
123 l-59 18 7 111 c4 60 18 229 31 375 32 340 48 405 193 730 68 155 104 252
127 342 20 78 23 88 30 88 3 0 42 -19 88 -41z m-1896 -67 c94 -127 134 -297
178 -762 33 -349 66 -538 120 -689 8 -24 13 -46 11 -48 -2 -2 -54 -21 -115
-42 l-110 -38 -20 86 c-11 47 -52 264 -91 481 -97 547 -109 607 -131 665 -19
50 -63 101 -126 144 -41 28 -48 52 -27 93 34 68 83 100 188 123 89 19 100 18
123 -13z m-333 -114 c-25 -49 -24 -121 4 -155 87 -108 120 -200 192 -542 75
-352 118 -533 160 -664 l38 -118 -42 -21 c-22 -11 -65 -36 -94 -54 -29 -19
-54 -34 -56 -34 -2 0 -7 12 -11 28 -3 15 -22 65 -40 112 -18 47 -43 133 -55
192 -24 112 -92 323 -179 548 -69 179 -81 227 -81 335 0 150 41 268 123 358
51 55 64 60 41 15z m2775 -347 c42 -69 51 -93 51 -130 0 -87 -56 -220 -147
-350 -50 -72 -416 -531 -420 -527 -1 1 31 88 72 194 81 208 266 716 310 852
15 47 30 89 33 94 7 13 41 -32 101 -133z m-1340 -1216 c274 -38 526 -132 574
-214 17 -30 33 -238 22 -300 l-6 -39 -122 59 c-145 70 -322 129 -478 161 -99
20 -143 23 -329 23 -185 -1 -230 -4 -319 -23 -117 -26 -256 -69 -359 -111
l-70 -29 -40 119 -41 119 56 44 c135 107 356 181 607 206 117 11 369 4 505
-15z"/>
<path d="M1781 1744 l-21 -15 22 -30 c32 -42 79 -69 122 -69 21 0 76 14 123
30 46 17 100 30 118 30 25 0 40 -8 58 -30 29 -34 39 -37 57 -15 10 12 6 22
-27 54 -57 57 -79 60 -193 23 -128 -42 -163 -42 -205 2 -30 32 -34 34 -54 20z"/>
<path d="M1250 1610 c-30 -21 -93 -56 -140 -76 -213 -93 -310 -171 -310 -247
0 -32 20 -46 115 -87 129 -54 369 -176 402 -204 41 -35 91 -35 132 0 38 32 42
76 8 98 -12 8 -83 42 -158 74 -158 70 -275 128 -283 141 -3 5 12 25 34 45 39
35 59 46 210 114 100 45 150 86 150 122 0 23 -7 33 -30 45 -44 23 -69 18 -130
-25z"/>
<path d="M3441 1624 c-12 -15 -21 -31 -21 -35 0 -11 76 -66 99 -73 183 -52
227 -70 263 -106 21 -21 38 -43 38 -49 0 -6 -15 -18 -32 -27 -18 -9 -76 -49
-129 -88 -53 -39 -118 -84 -145 -101 -77 -48 -93 -96 -42 -128 27 -17 60 0
188 98 69 52 169 127 222 165 124 90 131 107 65 165 -68 59 -141 100 -277 156
-145 59 -197 64 -229 23z"/>
<path d="M1963 1470 c-85 -38 -109 -144 -57 -248 46 -93 122 -123 203 -80 61
31 84 78 85 171 1 59 -3 79 -22 108 -40 65 -129 86 -209 49z m111 -116 c40
-40 -7 -109 -59 -86 -32 15 -41 47 -21 77 19 29 57 33 80 9z"/>
<path d="M2799 1470 c-51 -27 -83 -94 -74 -152 14 -89 69 -171 122 -184 73
-19 146 14 180 81 22 41 19 156 -4 204 -33 68 -145 93 -224 51z m109 -122 c7
-7 12 -24 12 -38 0 -33 -17 -50 -50 -50 -33 0 -50 17 -50 50 0 33 17 50 50 50
14 0 31 -5 38 -12z"/>
<path d="M2347 952 c14 -38 58 -93 88 -112 44 -27 114 -27 150 2 32 25 85 96
85 113 0 7 -18 -5 -40 -26 -46 -44 -105 -63 -164 -54 -30 6 -52 18 -83 51 -23
24 -39 36 -36 26z"/>
<path d="M2135 763 c-11 -3 -75 -32 -142 -64 -180 -89 -259 -89 -389 -3 -28
19 -55 34 -59 34 -4 0 -6 -42 -3 -92 4 -109 28 -169 93 -234 223 -222 757 -91
782 192 4 51 2 64 -19 94 -35 52 -98 80 -178 79 -36 -1 -74 -3 -85 -6z"/>
<path d="M2625 757 c-74 -29 -107 -75 -107 -146 2 -201 299 -362 573 -311 131
24 249 117 285 223 18 50 26 188 13 201 -3 4 -29 -9 -57 -28 -130 -87 -205
-86 -396 6 -121 58 -137 63 -206 65 -42 1 -89 -3 -105 -10z"/>
</g>
</svg>
